<svg xmlns="http://www.w3.org/2000/svg" xmlns:xlink="http://www.w3.org/1999/xlink" width="1700.5" height="600.801" viewBox="0 0 2004.5 726.801"><defs><style>.a,.b,.c,.d,.e,.f,.g,.h,.i{stroke:#707070;}.a{fill:url(#a);}.b{fill:#1007ff;}.c{fill:#00ff97;}.d{fill:#4b4bce;}.e{fill:#fdd;}.f,.l{fill:none;}.g{fill:#fff;}.h{fill:#ffee50;}.i{fill:#ffe250;}.j{font-size:107px;font-family:CenturySchoolbook, Century Schoolbook;}.k{stroke:none;}</style><linearGradient id="a" x1="1" y1="-0.632" x2="-0.08" y2="0.889" gradientUnits="objectBoundingBox"><stop offset="0" stop-color="#ff1414"/><stop offset="1" stop-color="#ef00ff"/></linearGradient></defs><g transform="translate(-26 0.903)"><g transform="translate(81)"><g transform="translate(294.745 -0.403)"><path class="a" d="M-2838,5125.481s-254.076,90.657-524.651-29.14-310.17-378.82-527.95-459.764-491.654-203.98-491.654-203.98H-2838Z" transform="translate(4382.254 -4432.597)"/><g transform="translate(481.255 60.403)"><g transform="translate(0 0)"><g class="b" transform="translate(0 66)"><rect class="k" width="408" height="482"/><rect class="l" x="0.5" y="0.5" width="407" height="481"/></g><g class="c" transform="translate(24 116)"><rect class="k" width="360" height="408"/><rect class="l" x="0.5" y="0.5" width="359" height="407"/></g><g class="d" transform="translate(120 170)"><rect class="k" width="168" height="24"/><rect class="l" x="0.5" y="0.5" width="167" height="23"/></g><g class="d" transform="translate(120 271)"><rect class="k" width="168" height="24"/><rect class="l" x="0.5" y="0.5" width="167" height="23"/></g><g class="d" transform="translate(120 372)"><rect class="k" width="168" height="24"/><rect class="l" x="0.5" y="0.5" width="167" height="23"/></g><g transform="translate(40.631 161.704)"><g class="e" transform="translate(7.369 8.296)"><rect class="k" width="28" height="32" rx="14"/><rect class="l" x="0.5" y="0.5" width="27" height="31" rx="13.5"/></g><path class="f" d="M0,16,17.1,32.557,55.369,0,26.7,17.98,17.1,24h0Z"/></g><g transform="translate(40.631 254.463)"><g class="g" transform="translate(7.369 8.537)"><rect class="k" width="28" height="32" rx="14"/><rect class="l" x="0.5" y="0.5" width="27" height="31" rx="13.5"/></g><path class="f" d="M0,16,17.1,32.557,55.369,0,26.7,17.98,17.1,24h0Z"/></g><g transform="translate(40.631 254.25)"><path class="f" d="M0,16,17.1,32.557,55.369,0,26.7,17.98,17.1,24h0Z"/></g><g transform="translate(40.631 254.463)"><g class="e" transform="translate(7.369 8.537)"><rect class="k" width="28" height="32" rx="14"/><rect class="l" x="0.5" y="0.5" width="27" height="31" rx="13.5"/></g><path class="f" d="M0,16,17.1,32.557,55.369,0,26.7,17.98,17.1,24h0Z"/></g><g transform="translate(40.631 355.655)"><g class="g" transform="translate(7.369 8.345)"><rect class="k" width="28" height="32" rx="14"/><rect class="l" x="0.5" y="0.5" width="27" height="31" rx="13.5"/></g><path class="f" d="M0,16,17.1,32.557,55.369,0,26.7,17.98,17.1,24h0Z"/></g><g transform="translate(40.631 355.357)"><path class="f" d="M0,16,17.1,32.557,55.369,0,26.7,17.98,17.1,24h0Z"/></g><g transform="translate(40.631 355.655)"><g class="e" transform="translate(7.369 8.345)"><rect class="k" width="28" height="32" rx="14"/><rect class="l" x="0.5" y="0.5" width="27" height="31" rx="13.5"/></g><path class="f" d="M0,16,17.1,32.557,55.369,0,26.7,17.98,17.1,24h0Z"/></g><g transform="translate(144)"><g class="h" transform="translate(0 42)"><rect class="k" width="120" height="48" rx="2"/><rect class="l" x="0.5" y="0.5" width="119" height="47" rx="1.5"/></g><g class="i" transform="translate(24 0)"><rect class="k" width="72" height="42"/><rect class="l" x="0.5" y="0.5" width="71" height="41"/></g></g></g></g></g><text class="j" transform="translate(-54 339)"><tspan x="10" y="10">Announcements</tspan></text></g></g></svg>