<svg xmlns="http://www.w3.org/2000/svg" xmlns:xlink="http://www.w3.org/1999/xlink" width="1804.176" height="740.958" viewBox="0 0 1804.176 740.958"><defs><style>.a,.b,.c,.d,.e,.f,.g,.h,.i{stroke:#707070;}.a{fill:url(#a);}.b{fill:#1007ff;}.c{fill:#00ff97;}.d{fill:#4b4bce;}.e{fill:#fdd;}.f,.l{fill:none;}.g{fill:#fff;}.h{fill:#ffee50;}.i{fill:#ffe250;}.j{font-size:93px;font-family:CenturySchoolbook, Century Schoolbook;}.k{stroke:none;}</style><linearGradient id="a" x1="1" y1="-0.632" x2="-0.08" y2="0.889" gradientUnits="objectBoundingBox"><stop offset="0" stop-color="#ff1414"/><stop offset="1" stop-color="#ef00ff"/></linearGradient></defs><g transform="translate(-36 0.903)"><g transform="translate(294.745 -0.403)"><path class="a" d="M-2837.324,5139.04s-254.187,92.431-524.88-29.71-310.306-386.232-528.181-468.761S-4382.255,4432.6-4382.255,4432.6h1544.931Z" transform="translate(4382.255 -4432.597)"/></g><g transform="translate(776 60)"><g transform="translate(-492 -112.038)"><g class="b" transform="translate(492 178.038)"><rect class="k" width="408" height="482"/><rect class="l" x="0.5" y="0.5" width="407" height="481"/></g><g class="c" transform="translate(516 228.038)"><rect class="k" width="360" height="408"/><rect class="l" x="0.5" y="0.5" width="359" height="407"/></g><g class="d" transform="translate(612 282.038)"><rect class="k" width="168" height="24"/><rect class="l" x="0.5" y="0.5" width="167" height="23"/></g><g class="d" transform="translate(612 383.038)"><rect class="k" width="168" height="24"/><rect class="l" x="0.5" y="0.5" width="167" height="23"/></g><g class="d" transform="translate(612 484.038)"><rect class="k" width="168" height="24"/><rect class="l" x="0.5" y="0.5" width="167" height="23"/></g><g transform="translate(532.631 273.741)"><g class="e" transform="translate(7.369 8.296)"><rect class="k" width="28" height="32" rx="14"/><rect class="l" x="0.5" y="0.5" width="27" height="31" rx="13.5"/></g><path class="f" d="M-4184.369,4737l17.1,16.557L-4129,4721l-28.67,17.98-9.6,6.02h0Z" transform="translate(4184.369 -4721)"/></g><g transform="translate(532.631 366.501)"><g class="g" transform="translate(7.369 8.537)"><rect class="k" width="28" height="32" rx="14"/><rect class="l" x="0.5" y="0.5" width="27" height="31" rx="13.5"/></g><path class="f" d="M-4184.369,4737l17.1,16.557L-4129,4721l-28.67,17.98-9.6,6.02h0Z" transform="translate(4184.369 -4721)"/></g><g transform="translate(532.631 366.287)"><path class="f" d="M-4184.369,4737l17.1,16.557L-4129,4721l-28.67,17.98-9.6,6.02h0Z" transform="translate(4184.369 -4721)"/></g><g transform="translate(532.631 366.501)"><g class="e" transform="translate(7.369 8.537)"><rect class="k" width="28" height="32" rx="14"/><rect class="l" x="0.5" y="0.5" width="27" height="31" rx="13.5"/></g><path class="f" d="M-4184.369,4737l17.1,16.557L-4129,4721l-28.67,17.98-9.6,6.02h0Z" transform="translate(4184.369 -4721)"/></g><g transform="translate(532.631 467.693)"><g class="g" transform="translate(7.369 8.345)"><rect class="k" width="28" height="32" rx="14"/><rect class="l" x="0.5" y="0.5" width="27" height="31" rx="13.5"/></g><path class="f" d="M-4184.369,4737l17.1,16.557L-4129,4721l-28.67,17.98-9.6,6.02h0Z" transform="translate(4184.369 -4721)"/></g><g transform="translate(532.631 467.394)"><path class="f" d="M-4184.369,4737l17.1,16.557L-4129,4721l-28.67,17.98-9.6,6.02h0Z" transform="translate(4184.369 -4721)"/></g><g transform="translate(532.631 467.693)"><g class="e" transform="translate(7.369 8.345)"><rect class="k" width="28" height="32" rx="14"/><rect class="l" x="0.5" y="0.5" width="27" height="31" rx="13.5"/></g><path class="f" d="M-4184.369,4737l17.1,16.557L-4129,4721l-28.67,17.98-9.6,6.02h0Z" transform="translate(4184.369 -4721)"/></g><g transform="translate(636 112)"><g class="h" transform="translate(0 42.038)"><rect class="k" width="120" height="48" rx="2"/><rect class="l" x="0.5" y="0.5" width="119" height="47" rx="1.5"/></g><g class="i" transform="translate(24 0.038)"><rect class="k" width="72" height="42"/><rect class="l" x="0.5" y="0.5" width="71" height="41"/></g></g></g></g><text class="j" transform="translate(37 350)"><tspan x="0" y="0">Announcements</tspan></text></g></svg>